# xmcd CD database file
#
# Track frame offsets:
#	150
#	26182
#	51767
#	99635
#	129048
#	172746
#	204889
#	234387
#	274034
#
# Disc length: 4313 seconds
#
# Revision: 0
# Processed by: cddbd v1.5.2PL0 Copyright (c) Steve Scherf et al.
# Submitted via: CD2WAV32(JP) R3.22
#
DISCID=6a10d709
DTITLE=Carlos Johnson - Live At B.L.U.E.S. Halsted
DYEAR=2007
DGENRE=Blues
TTITLE0=C.J.'s Swing
TTITLE1=Lisa
TTITLE2=I'll Play The Blues For You
TTITLE3=High Heel Sneakers
TTITLE4=I'm Cold And I'm Wondering
TTITLE5=Everyday I Have The Blues
TTITLE6=What's Going On
TTITLE7=Don't Throw Your Love On Me So Strong
TTITLE8=I Wonder Why
EXTD=
EXTT0=C.J.'s Swing
EXTT1=Lisa
EXTT2=I'll Play The Blues For You
EXTT3=High Heel Sneakers
EXTT4=I'm Cold And I'm Wondering
EXTT5=Everyday I Have The Blues
EXTT6=What's Going On
EXTT7=Don't Throw Your Love On Me So Strong
EXTT8=I Wonder Why
PLAYORDER=
